<?xml version="1.0" encoding="utf-8"?>
<!-- Generator: Adobe Illustrator 16.0.0, SVG Export Plug-In . SVG Version: 6.00 Build 0)  -->
<!DOCTYPE svg PUBLIC "-//W3C//DTD SVG 1.1//EN" "http://www.w3.org/Graphics/SVG/1.1/DTD/svg11.dtd">
<svg version="1.1" id="Layer_1" xmlns="http://www.w3.org/2000/svg" xmlns:xlink="http://www.w3.org/1999/xlink" x="0px" y="0px"
	 width="864px" height="864px" viewBox="0 0 864 864" enable-background="new 0 0 864 864" xml:space="preserve">
<path fill-rule="evenodd" clip-rule="evenodd" d="M286.691,787.348c-1.708-15.211,7.88-34.979,9.119-37.768
	c6.813-15.35,16.034-28.906,29.213-39.545c12.506-10.098,27.157-12.967,42.335-10.078c10.278,1.955,20.001,6.797,30.006,10.25
	c1.326,0.457,2.911,0.691,4.265,0.438c3.383-0.635,6.702-1.609,10.047-2.447c0.338,0.504,0.676,1.008,1.013,1.512
	c5.562-13.754,11.555-27.355,16.572-41.305c5.61-15.6,10.41-31.494,15.353-47.326c0.635-2.031,0.688-4.758-0.146-6.658
	c-8.322-18.98-13.56-38.736-15.605-59.354c-0.03-0.301-0.379-0.57-1.693-2.434c-4.866,10.738-10.373,20.299-13.583,30.578
	c-4.772,15.279-7.966,31.055-11.75,46.639c-5.711,23.52-17.265,42.221-42.313,48.516c-22.444,5.639-43.658,2.402-60.936-13.932
	c-10.409-9.838-15.629-23.059-17.576-37.289c-1.934-14.135-2.405-28.273,0.601-42.381c3.771-17.703,10.553-34.096,21.684-48.4
	c18.303-23.518,39.904-43.545,67.605-55.162c15.881-6.662,33.04-10.275,50.834-15.625c-0.291-3.785-0.545-9.156-1.264-14.465
	c-0.123-0.898-2.162-1.781-3.466-2.234c-8.018-2.783-16.262-4.996-24.086-8.232c-16.452-6.803-29.608-17.369-36.927-34.227
	c-4.299-9.9-5.587-20.057-3.722-31.413c-11.821-1.637-21.291-7.345-26.26-18.836c-3.618-8.365-3.256-17.058-0.322-25.471
	c3.743-10.731,16.897-23.635,36.261-19.618c0-3.025,0.002-5.878,0-8.731c-0.014-16.382,1.084-32.605,6.983-48.128
	c6.248-16.445,14.708-31.124,30.871-40.013c1.362-0.75,2.363-3.985,1.993-5.743c-1.87-8.896-3.904-17.789-6.535-26.485
	c-3.248-10.735-7.125-21.28-10.775-31.891c-0.426-1.239-1.14-2.377-1.984-4.101c-2.674,7.054-5.012,13.542-7.582,19.938
	c-6.421,15.977-15.949,29.564-30.069,39.828c-24.309,17.669-60.704,7.518-69.923-22.588c-7.066-23.075-6.399-45.995,0.191-68.822
	c8.642-29.933,24.927-54.737,51.609-71.614c27.216-17.214,55.953-12.442,75.758,13.193c16.011,20.724,26.571,44.165,32.166,69.511
	c5.284,23.94,8.799,48.272,13.121,72.427c0.437,2.436,1.077,4.837,1.959,8.744c0.596-3.571,1.214-5.835,1.32-8.122
	c1.908-41.106,10.092-81.054,22.802-120.065c5.652-17.348,14.037-33.167,29.474-44.375c17.519-12.72,40.097-11.291,57.076-0.115
	c30.585,20.131,49.554,48.799,57.705,84.39c4.852,21.181,2.754,41.647-9.797,60.072c-13.866,20.356-39.932,26.193-61.304,14.086
	c-16.018-9.075-26.655-23.05-35.431-38.738c-0.567-1.013-1.119-2.039-1.771-2.996c-0.17-0.25-0.688-0.262-2.153-0.757
	c-2.299,12.365-4.771,24.543-6.753,36.801c-0.991,6.133-1.226,12.405-1.493,18.628c-0.063,1.485,0.676,3.834,1.773,4.416
	c23.934,12.683,34.587,34.163,39.345,59.406c1.854,9.839,2.816,19.846,4.284,30.497c19.229-4.712,32.293,2.778,36.677,22.159
	c3.777,16.696-4.879,31.765-20.693,39.714c0,9.748,1.104,19.63-0.35,29.122c-1.161,7.583-4.186,15.562-8.569,21.838
	c-11.928,17.079-29.28,26.955-49.094,32.449c-3.664,1.016-4.517,2.432-4.572,5.928c-0.386,24.576,1.835,48.867,6.896,72.938
	c1.501,7.137,2.056,14.473,2.947,21.006c3.589-2.025,6.653-5.164,9.551-5.018c3.313,0.166,6.479,3.254,9.973,5.221
	c1.39-3.506,3.206-7.971,4.936-12.471c7.979-20.756,24.405-27.17,45.289-20.098c5.977,2.023,11.267,6.018,17.031,8.773
	c1.495,0.715,4.233,0.959,5.319,0.082c16.406-13.246,22.148-30.777,19.998-51.318c-0.162-1.549-0.615-3.074-0.689-4.623
	c-0.118-2.49-0.03-4.99,0.458-7.525c5.395,12.641,4.559,26.059,3.999,39.232c-0.582,13.734-7.099,25.105-16.829,34.193
	c3.796,7.713,8.133,15.057,11.038,22.928c2.032,5.506,0.947,12.277,3.385,17.484c2.423,5.176,8.514,8.564,11.254,13.672
	c11.742,21.883,17.219,45.729,20.874,70.127c4.572,30.506,6.477,61.141,5.99,91.973c-0.038,2.396,2.247,5.139,4.044,7.203
	c10.232,11.758,20.4,23.416,24.133,39.264c2.338,9.926,0.187,17.666-9.228,21.73c-10.183,4.393-20.883,8.354-31.75,10.244
	c-24.626,4.287-49.48,8.029-74.604,6.285c-15.764-1.094-31.724,0.438-47.84-3.059c-11.886-4.113-12.333-9.648-23.51-8.199
	c-5.341,0.693-31.427,7.516-41.008,7.84c-18.756,0.387-86.067,0.699-94.607-1.381c-20.838-0.639-51.24-8.508-70.371-25.93
	C294.889,801.516,288.741,797.775,286.691,787.348z M506.721,706.434c17.787-8.48,32.826-4.537,46.951,5.469
	c5.326,3.773,9.65,9.561,17.796,7.41c0-14.881,0.065-29.943-0.09-45.004c-0.018-1.754-0.834-3.865-1.994-5.176
	c-4.435-5.008-9.16-9.754-13.995-14.828c-12.738,5.729-27.137,4.002-41.324,2.912C511.618,673.615,509.243,689.529,506.721,706.434z
	"/>
<path fill-rule="evenodd" clip-rule="evenodd" fill="#ED1C24" d="M443.601,472.668c-29.213,5.676-56.688,14.066-79.106,33.691
	c-12.525,10.965-25.515,21.91-30.891,38.775c-0.401,1.26-2.003,2.148-3.079,3.176c-1.394,1.332-2.819,2.631-3.477,4.77
	c2.62-1.801,5.631-3.242,7.73-5.523c1.514-1.646,1.515-4.582,2.709-6.643c6.913-11.943,16.162-22.021,26.545-30.902
	c18.347-15.693,39.694-26.285,63.243-30.641c13.357-2.473,27.523-1.332,41.258-0.582c4.526,0.248,8.95,4.203,13.185,6.844
	c1.249,0.777,2.242,2.797,2.409,4.35c1.369,12.715,2.514,25.455,3.77,38.635c-14.033-5.672-27.367-4.072-40.301,2.922
	c-12.558,6.791-21.935,16.791-29.145,28.895c-10.266,17.232-15.101,36.336-18.923,55.795c-2.458,12.514-4.524,25.129-11.826,36.17
	c-7.478,11.307-17.677,18.215-30.748,21.357c-14.224,3.42-28.291,3.189-41.525-3.172c-16.467-7.914-24.663-22.555-28.609-39.582
	c-8.875-38.291,2.44-71.459,27.462-100.402c19.74-22.836,43.238-40.76,72.198-50.664
	C404.883,473.643,423.742,470.844,443.601,472.668z"/>
<g>
	<path fill-rule="evenodd" clip-rule="evenodd" fill="#726658" d="M445.757,218.467c-12.794-7.455-25.174-9.827-36.822-7.91
		c-6.816-21.42-13.391-42.178-20.062-62.904c-0.648-2.014-1.675-3.991-2.902-5.717c-2.767-3.891-2.503-6.652,1.553-9.815
		c7.472-5.823,10.807-16.975,8.495-22.846c-2.355,6.057-5.092,13.096-7.829,20.134c-0.655-0.211-1.311-0.422-1.965-0.633
		c-1.707-9.833,6.529-19.608-0.047-31.029c-2.334,12.066-4.579,22.727-6.434,33.455c-3.657,21.15-10.689,40.812-24.555,57.581
		c-9.449,11.428-21.572,18.718-36.228,20.088c-14.689,1.374-29.424-7.352-37.074-23.913c-6.535-14.149-6.322-29.039-5.012-44.086
		c2.297-26.376,10.694-50.551,27.711-70.953c11.723-14.055,24.808-26.75,44.065-30.606c15.681-3.14,29.3,0.392,40.867,11.102
		c17.197,15.922,27.105,36.437,34.545,58.124c8.761,25.537,13.328,52.056,16.783,78.784c0.989,7.653,2.727,15.207,4.036,22.821
		C445.273,212.407,445.375,214.718,445.757,218.467z"/>
	<path fill-rule="evenodd" clip-rule="evenodd" fill="#726658" d="M499.831,102.034c-0.355,4.146-0.711,8.293-1.065,12.439
		c-0.446,0.084-0.892,0.168-1.338,0.252c-1.072-4.624-2.145-9.248-3.422-14.751c-2.889,8.694,0.364,15.502,3.895,22.261
		c1.253,2.4,2.626,4.741,3.789,7.182c3.744,7.854,2.86,15.226,0.65,23.818c-4.421,17.187-6.317,35.022-9.374,53.29
		c-12.949-2.985-24.966,1.927-37.196,10.855c0.395-8.73,0.583-16.746,1.148-24.734c2.812-39.771,10.391-78.651,22.953-116.467
		c3.917-11.789,10.375-22.301,18.854-31.816c16.91-18.976,43.323-17.306,60.512-5.379c22.688,15.741,37.145,37.903,47.04,63.202
		c6.009,15.363,9.101,31.433,7.167,47.953c-2.22,18.948-12.308,37.522-33.692,41.704c-15.779,3.085-29.978-0.831-41.963-11.868
		c-18.825-17.336-29.644-39.042-34.791-63.826c-0.975-4.691-1.79-9.415-2.68-14.124
		C500.156,102.028,499.993,102.031,499.831,102.034z"/>
</g>
<g>
	<path fill-rule="evenodd" clip-rule="evenodd" fill="#FFFFFF" d="M459.815,363.407c7.975,0.919,11.166,2.947,16.18,5.547
		c6.401,3.318,6.103,9.476-0.229,12.989c-11.197,6.213-23.263,7.016-35.319,3.786c-3.147-0.844-6.552-4.774-7.709-8.041
		c-1.641-4.633,2.796-7.026,6.377-9.06C443.133,366.346,449.7,364.185,459.815,363.407z"/>
	<path fill-rule="evenodd" clip-rule="evenodd" fill="#FFFFFF" d="M451.34,266.871c-0.463-0.001-0.924-0.002-1.386-0.003
		c0-10.57,0.228-21.148-0.143-31.705c-0.108-3.067-1.18-6.696-3.094-9.004c-9.793-11.81-33.956-15.181-46.651-6.368
		c-15.59,10.823-23.461,27.015-28.663,44.542c-4.433,14.935-3.758,30.456-3.608,45.845c0.123,12.749,2.227,25.049,7.845,36.671
		c6.521,13.487,17.132,21.316,31.868,23.211c5.272,0.678,10.371,0.674,14.985-3.996c6.288-6.365,14.968-8.993,23.715-9.771
		c4.761-0.424,5.218-2.254,5.2-6.172C451.279,322.372,451.34,294.621,451.34,266.871z M441.179,342.586
		c-5.512,0.336-5.39-5.545-6.069-9.518c-0.375-2.193,0.302-4.824,1.413-6.959c0.864-2.28,2.193-3.998,4.253-3.997
		c0.613-0.021,1.186,0.122,1.721,0.417c2.618,1.253,4.925,5.312,4.925,11.42C447.421,338.785,444.143,342.6,441.179,342.586z"/>
	<path fill-rule="evenodd" clip-rule="evenodd" fill="#FFFFFF" d="M537.266,284.513c-2.799-19.341-7.29-37.899-18.883-54.092
		c-14.842-20.734-37.946-26.628-58.458-10.337c-3.428,2.722-5.376,5.759-5.214,10.419c0.583,16.757,0.931,33.525,1.231,50.29
		c0.377,20.909,0.626,41.821,0.913,62.731c0.047,3.496,0.007,6.992,0.007,9.568c10.21,2.506,19.81,3.344,27.903,7.279
		c7.936,3.856,14.71,3.722,22.169,0.658c14.599-5.996,21.69-18.403,26.262-32.331C537.891,314.397,539.462,299.695,537.266,284.513z
		 M467.925,341.702c-4.203,0-6.187-5.782-5.719-11.258c0.046-2.513,0.807-4.958,2.34-6.919c0.185-0.248,0.377-0.488,0.583-0.708
		c2.361-2.51,4.232-2.964,6.33,0.474c0.14,0.229,0.268,0.471,0.392,0.719c1.2,2.284,1.686,4.861,1.488,7.416
		C473.309,336.622,471.396,341.702,467.925,341.702z"/>
</g>
<g>
	<path fill-rule="evenodd" clip-rule="evenodd" fill="#F9ED32" d="M495.404,369.251c14.101-3.413,25.934-9.449,34.079-21.448
		c6.566-9.672,10.102-20.512,12.193-31.783c2.146-11.562,12.048-16.642,22.566-10.974c15.897,8.565,17.619,38.159,2.639,48.247
		c-2.365,1.592-7.446,3.245-8.223,2.317c-2.168-2.589-3.493-6.462-3.748-9.932c-0.339-4.614-0.304-8.938-5.476-12.03
		c1.1,3.318,2.015,6.079,3.337,10.067c-3.356-2.076-5.727-3.542-7.154-4.425c3.152,9.15,7.884,18.495,9.475,28.348
		c4.287,26.547-3.227,46.976-29.438,61.342c-19.147,10.495-39.799,15.239-61.647,16.799c-21.054,1.504-41.501-0.15-61.445-6.535
		c-23.573-7.545-41.443-21.406-46.123-47.328c-1.999-11.07,0.703-22.014,4-32.663c0.774-2.503,1.711-4.956,1.815-7.852
		c-1.076,1.265-2.017,2.692-3.271,3.746c-1.017,0.853-2.411,1.257-3.637,1.86c-0.5-1.543-1.658-3.237-1.348-4.595
		c0.488-2.134,1.966-4.042,3.173-6.326c-7.176,5.287-7.498,9.65-1.312,14.339c-0.886,2.72-1.774,5.447-2.651,8.143
		c-9.759,1.413-18.289-4.369-23.157-15.634c-7.325-16.952,6.575-38.591,24.393-37.973c6.243,0.217,8.286,2.073,8.672,8.296
		c1.094,17.648,7.853,32.354,22.382,42.933c8.227,5.99,17.4,9.333,27.78,8.488c-2.249,21.535,8.591,34.381,31.387,36.483
		c14.715,1.357,29.171,0.074,41.59-9.384C496.153,394.237,502.426,382.709,495.404,369.251z"/>
	<path fill-rule="evenodd" clip-rule="evenodd" fill="#F9ED32" d="M425.394,450.604c0,3.564-0.027,6.434,0.006,9.301
		c0.085,7.16,1.544,8.137,9.228,5.85C433.046,457.119,436.534,451.787,425.394,450.604z"/>
	<path fill-rule="evenodd" clip-rule="evenodd" fill="#F9ED32" d="M682.264,791.395c-5.562-10.559-12.279-20.627-19.479-30.166
		c-5.238-6.938-9.13-13.48-8.283-22.668c0.637-6.906-0.32-13.986-0.878-20.965c-1.515-18.967-2.39-38.033-5.042-56.844
		c-2.472-17.541-5.883-35.105-10.855-52.082c-2.977-10.164-9.222-19.551-15.021-28.633c-3.191-5-7.842-4.77-11.494,0.193
		c-3.627,4.926-5.906,10.846-8.654,16.098c-0.521-5.508-1.129-11.932-1.868-19.744c1.913,2.504,2.889,3.781,4.315,5.65
		c2.669-2.914,4.61-6.314,7.537-7.914c3.826-2.092,3.865-4.039,3.661-8.164c-0.99-19.928-25.149-48.787-47.929-51.092
		c-11.365-1.15-22.554,1.496-29.113,12.457c-5.932,9.916-7.159,20.646-7.651,33.646c-1.521-3.111-2.042-4.898-3.118-6.24
		c-2.721-3.393-5.228-7.24-8.68-9.691c-4.363-3.1-6.986-1.242-7.345,4.139c-0.622,9.348-0.225,18.547,3.219,27.424
		c0.424,1.092,0.255,2.414,0.36,3.629c-0.713,0.158-1.425,0.314-2.137,0.473c-10.967-19.922-11.773-42.561-15.489-64.432
		c-3.853-22.67-5.633-45.484-4.528-68.531c-8.673,0.92-8.897,0.947-8.379,8.518c0.568,8.32,1.503,16.617,2.416,24.91
		c1.869,16.969,3.748,33.936,5.782,50.885c1.501,12.508,2.625,25.117,5.182,37.42c1.168,5.623-0.645,8.354-4.96,9.041
		c-8.754,1.396-17.781,1.021-26.523,2.34c-12.607,1.902-14.682-1.32-16.722-7.555c-1.997-12.096-3.895-23.592-5.811-35.199
		c-9.539,4.16-12.657,9.787-10.711,18.752c0.204,0.939,0.478,1.875,0.588,2.826c2.843,24.477,10.13,47.344,24.734,67.479
		c3.196,4.406,6.955,8.402,10.455,12.588c0.747-0.318,1.494-0.639,2.24-0.957c-0.395-3.346,0.418-7.791-1.428-9.814
		c-4.386-4.807-2.398-8.537-0.349-13.045c0.442,3.998,0.847,7.662,1.251,11.324c0.581-0.004,1.162-0.008,1.742-0.014
		c1.055-2.131,2.108-4.262,3.537-7.148c0,4.736,0.772,8.766-0.122,12.385c-7.439,30.08-17.191,59.404-29.491,87.867
		c-2.064,4.779-3.776,9.711-5.622,14.496c-2.25-1.422-5.23-3.309-8.211-5.193c-0.119,0.24-0.238,0.48-0.357,0.721
		c3.01,3.619,6.019,7.236,9.028,10.855c-0.55,0.502-1.102,1.004-1.651,1.504c-1.686-2.066-3.156-4.363-5.09-6.164
		c-15.401-14.35-34.315-19.412-54.428-17.025c-17.131,2.031-29.365,13.455-38.433,27.76c-7.868,12.414-12.252,26.227-14.573,40.68
		c-2.021,12.59,5.214,22.59,16.511,22.441c-0.894-19.889,1.062-39.074,15.268-54.654c-10.728,16.189-13.964,34.268-12.917,53.338
		c0.1,1.828,1.628,4.803,3.011,5.143c9.368,2.303,18.814,5.232,28.348,5.713c20.092,1.008,40.294,1.51,60.374,0.568
		c17.571-0.824,35.075-3.633,52.529-6.129c7.208-1.029,9.229-4.494,9.32-11.734c0.14-11.008-5.027-20.078-10.258-29.197
		c-1.189-2.074-2.491-4.828-2.082-6.949c2.493-12.922,5.607-25.721,8.245-38.617c4.334-21.191,8.46-42.428,12.681-63.643
		c1.731-8.707,3.461-17.416,5.255-26.109c0.118-0.568,0.79-1.023,1.327-1.684c0.364,1.645,0.675,3.051,0.986,4.459
		c0.459,0.188,0.919,0.375,1.378,0.561c1.681-2.701,3.362-5.406,5.043-8.109c0.473,0.279,0.944,0.559,1.417,0.836
		c-1.766,2.738-2.94,6.377-5.431,8.008c-4.073,2.666-4.579,5.639-3.753,9.535c14.166,2.838,27.578,1.658,40.838-2.422
		c-1.359-8.455-2.104-16.039,3.878-22.613c0.615,2.623,0.746,5.25,0.591,7.857c-0.501,8.369,0.991,16.213,5.254,23.559
		c4.922,8.482,15.03,11.396,23.551,6.684c7.486-4.141,12.038-10.518,15.122-18.441c-0.259,4-1.264,7.746-2.215,11.508
		c-0.553,2.182-1.61,4.434-1.429,6.57c1.374,16.229,3.059,32.434,4.52,48.656c0.736,8.18-2.637,17.059,5.475,24.205
		c-4.831-2.293-8.672-4.113-12.511-5.936c-0.165,0.387-0.331,0.775-0.496,1.162c3.501,4.475,7.001,8.949,10.501,13.424
		c-0.312,0.148-0.623,0.297-0.935,0.445c-6.16-4.73-12.117-9.758-18.516-14.139c-23.189-15.877-51.83-9.467-66.754,14.184
		c-9.27,14.689-13.171,30.965-15.183,47.721c-0.897,7.475-1.443,16.445,6.407,21.094c5.743,3.4,12.71,4.732,19.713,7.189
		c-0.959-20.736,0.841-39.15,11.449-55.611c-6.528,15.869-10,32.297-9.835,49.609c0.044,4.6,1.898,6.424,5.674,7.041
		c6.105,0.996,12.244,2.029,18.407,2.404c27.726,1.689,55.322,0.498,82.589-5.086c10.763-2.203,21.518-4.697,31.998-7.951
		C685.527,809.24,686.686,799.789,682.264,791.395z M557.689,614.32c-4.334,5.432-10.115,7.365-16.693,5.986
		c-6.932-1.453-9.284-7.518-10.558-13.332c-2.497-11.406-0.559-22.549,7.136-31.387c3.371-3.869,9.267-6.193,14.455-7.639
		c5.024-1.4,11.39,4.873,13.113,11.77c0.794,3.18,0.921,6.527,1.146,8.246C566.237,598.803,563.471,607.078,557.689,614.32z"/>
	<path fill-rule="evenodd" clip-rule="evenodd" fill="#F9ED32" d="M398.707,715.203c-47.948-6.633-75.378,39.697-76.529,82.395
		c-4.176-0.783-8.266-1.541-12.352-2.318c-4.287-0.816-3.388-4.242-3.109-6.914c1.398-13.396,5.344-26.076,11.299-38.141
		c0.665-1.348,1.291-2.715,2.397-5.045c-7.882,7.68-14.667,28.141-16.363,47.664c-6.088-1.324-8.978-4.766-9.139-11.223
		c-0.342-13.66,3.18-26.492,9.66-38.326c6.841-12.49,14.673-24.332,27.326-32.033c12.623-7.684,25.775-10.873,40.288-6.115
		c8.897,2.916,17.908,5.49,26.867,8.219C398.937,713.979,398.822,714.59,398.707,715.203z"/>
	<path fill-rule="evenodd" clip-rule="evenodd" fill="#F9ED32" d="M439.125,728.68c-13.916-1.027-24.484-8.607-37.407-13.68
		c7.346-5.789,11.042-0.713,14.413,1.268c0.735-2.982,1.108-6.035,2.225-8.783c6.608-16.26,13.441-32.428,20.077-48.674
		c1.811-4.434,3.205-9.035,5.471-15.5c4.344,5.986,7.812,10.693,11.203,15.455c5.218,7.328,6.376,14.455,2.322,23.357
		C450.503,697.33,445.103,713.232,439.125,728.68z"/>
	<path fill-rule="evenodd" clip-rule="evenodd" fill="#F9ED32" d="M556.293,717.98c-37.422,8.57-46.59,38.211-53.896,69.367
		c-3.221-5.334-6.848-10.613-9.601-16.314c-0.898-1.861,0.313-4.859,0.844-7.273c3.476-15.82,6.458-31.787,10.969-47.307
		c1.085-3.736,6.912-7.348,11.267-8.65C530.64,703.387,543.699,708.186,556.293,717.98z"/>
	<path fill-rule="evenodd" clip-rule="evenodd" fill="#F9ED32" d="M600.614,727.863c-9.43,4.949-15.733-3.855-23.654-6.236
		c-0.546-0.164-1.059-1.584-1.019-2.393c0.473-9.469,1.053-18.932,1.721-30.371c5.461,3.08,9.961,5.715,14.551,8.182
		c6.889,3.701,9.795,9.082,8.523,17.049C600.047,718.414,600.614,722.936,600.614,727.863z"/>
</g>
</svg>
